<?xml version="1.0" encoding="UTF-8" standalone="no" ?>
<!DOCTYPE svg PUBLIC "-//W3C//DTD SVG 1.1//EN" "http://www.w3.org/Graphics/SVG/1.1/DTD/svg11.dtd">
<svg xmlns="http://www.w3.org/2000/svg" xmlns:xlink="http://www.w3.org/1999/xlink" version="1.1" width="1080" height="1080" viewBox="0 0 1080 1080" xml:space="preserve">
<desc>Created with Fabric.js 5.2.4</desc>
<defs>
</defs>
<g transform="matrix(1 0 0 1 540 540)" id="e1550cf2-78bd-47c6-a407-d9f8e5d1f286"  >
<rect style="stroke: none; stroke-width: 1; stroke-dasharray: none; stroke-linecap: butt; stroke-dashoffset: 0; stroke-linejoin: miter; stroke-miterlimit: 4; fill: rgb(255,255,255); fill-rule: nonzero; opacity: 1; visibility: hidden;" vector-effect="non-scaling-stroke"  x="-540" y="-540" rx="0" ry="0" width="1080" height="1080" />
</g>
<g transform="matrix(1 0 0 1 540 540)" id="edecc2ce-eafc-4391-811e-2dee2c293217"  >
</g>
<g transform="matrix(3.66 0 0 3.66 826.85 384.41)"  >
<path style="stroke: rgb(255,255,255); stroke-opacity: 0.9; stroke-width: 16; stroke-dasharray: none; stroke-linecap: round; stroke-dashoffset: 0; stroke-linejoin: round; stroke-miterlimit: 4; fill: none; fill-rule: nonzero; opacity: 1;" vector-effect="non-scaling-stroke"  transform=" translate(-251.63, -138.03)" d="M 247.327 154.684 C 241.287 129.635 239.633 106.118 259.961 133.946" stroke-linecap="round" />
</g>
<g transform="matrix(3.66 0 0 3.66 982.08 357.43)"  >
<path style="stroke: rgb(255,255,255); stroke-opacity: 0.9; stroke-width: 16; stroke-dasharray: none; stroke-linecap: round; stroke-dashoffset: 0; stroke-linejoin: round; stroke-miterlimit: 4; fill: none; fill-rule: nonzero; opacity: 1;" vector-effect="non-scaling-stroke"  transform=" translate(-294.09, -130.65)" d="M 287.721 129.075 C 300.929 107.948 301.616 118.967 299.614 143.417" stroke-linecap="round" />
</g>
<g transform="matrix(3.66 0 0 3.66 1127.27 602.52)"  >
<path style="stroke: rgb(255,255,255); stroke-opacity: 0.9; stroke-width: 16; stroke-dasharray: none; stroke-linecap: round; stroke-dashoffset: 0; stroke-linejoin: round; stroke-miterlimit: 4; fill: none; fill-rule: nonzero; opacity: 1;" vector-effect="non-scaling-stroke"  transform=" translate(-333.8, -197.69)" d="M 297.714 146.304 C 304.632 172.137 312.389 210.647 296.604 234.569 C 321.533 244.234 339.049 249.067 349.151 249.067 C 364.305 249.067 364.014 242.903 371 249.067" stroke-linecap="round" />
</g>
<g transform="matrix(3.66 0 0 3.66 741.6 530.56)"  >
<path style="stroke: rgb(255,255,255); stroke-opacity: 0.9; stroke-width: 16; stroke-dasharray: none; stroke-linecap: round; stroke-dashoffset: 0; stroke-linejoin: round; stroke-miterlimit: 4; fill: none; fill-rule: nonzero; opacity: 1;" vector-effect="non-scaling-stroke"  transform=" translate(-228.31, -178)" d="M 241.084 160.236 C 230.255 170.161 219.178 181.252 215.545 195.768" stroke-linecap="round" />
</g>
<g transform="matrix(3.66 0 0 3.66 353.91 736.9)"  >
<path style="stroke: rgb(255,255,255); stroke-opacity: 0.9; stroke-width: 16; stroke-dasharray: none; stroke-linecap: round; stroke-dashoffset: 0; stroke-linejoin: round; stroke-miterlimit: 4; fill: none; fill-rule: nonzero; opacity: 1;" vector-effect="non-scaling-stroke"  transform=" translate(-122.27, -234.44)" d="M 215.545 190.835 C 144.168 178.002 105.797 204.852 91.9119 246.772 C 26.4829 264.873 12.089 276.372 48.7303 281.268" stroke-linecap="round" />
</g>
<g transform="matrix(3.66 0 0 3.66 518.32 723.39)"  >
<path style="stroke: rgb(255,255,255); stroke-opacity: 0.9; stroke-width: 16; stroke-dasharray: none; stroke-linecap: round; stroke-dashoffset: 0; stroke-linejoin: round; stroke-miterlimit: 4; fill: none; fill-rule: nonzero; opacity: 1;" vector-effect="non-scaling-stroke"  transform=" translate(-167.24, -230.75)" d="M 165.859 210.275 C 169.397 208.668 177.78 208.668 183.116 210.469 C 247.613 232.24 73.0129 252.398 163.134 252.398 C 170.724 252.398 187.233 251.024 189.936 251.024" stroke-linecap="round" />
</g>
<g transform="matrix(3.66 0 0 3.66 926.61 537.78)"  >
<path style="stroke: rgb(255,255,255); stroke-opacity: 0.9; stroke-width: 16; stroke-dasharray: none; stroke-linecap: round; stroke-dashoffset: 0; stroke-linejoin: round; stroke-miterlimit: 4; fill: none; fill-rule: nonzero; opacity: 1;" vector-effect="non-scaling-stroke"  transform=" translate(-278.92, -179.98)" d="M 292.749 169.119 C 302.64 192.481 265.664 201.32 263.412 173.603" stroke-linecap="round" />
</g>
<g transform="matrix(3.66 0 0 3.66 932.4 561.01)"  >
<path style="stroke: rgb(255,255,255); stroke-opacity: 0.9; stroke-width: 16; stroke-dasharray: none; stroke-linecap: round; stroke-dashoffset: 0; stroke-linejoin: round; stroke-miterlimit: 4; fill: none; fill-rule: nonzero; opacity: 1;" vector-effect="non-scaling-stroke"  transform=" translate(-280.5, -186.33)" d="M 281.214 187.995 C 275.94 185.649 280.909 185.292 282.169 184.664" stroke-linecap="round" />
</g>
<g transform="matrix(3.66 0 0 3.66 952.7 725.42)"  >
<path style="stroke: rgb(255,255,255); stroke-opacity: 0.9; stroke-width: 16; stroke-dasharray: none; stroke-linecap: round; stroke-dashoffset: 0; stroke-linejoin: round; stroke-miterlimit: 4; fill: none; fill-rule: nonzero; opacity: 1;" vector-effect="non-scaling-stroke"  transform=" translate(-286.06, -231.3)" d="M 245.526 213.534 C 249.958 216.297 251.405 221.914 252.84 226.795 C 263.52 263.112 250.534 243.316 297.643 246.457 C 304.236 246.897 328.648 250.048 326.444 244.171" stroke-linecap="round" />
</g>
</svg>