<svg width="23" height="22" viewBox="0 0 23 22" fill="none" xmlns="http://www.w3.org/2000/svg">
<path d="M10.7237 17.4167C14.7738 17.4167 18.057 14.1334 18.057 10.0833C18.057 6.03325 14.7738 2.75 10.7237 2.75C6.67363 2.75 3.39038 6.03325 3.39038 10.0833C3.39038 14.1334 6.67363 17.4167 10.7237 17.4167Z" stroke="#221711" stroke-width="2" stroke-linecap="round" stroke-linejoin="round"/>
<path d="M10.7237 17.4167C14.7738 17.4167 18.057 14.1334 18.057 10.0833C18.057 6.03325 14.7738 2.75 10.7237 2.75C6.67363 2.75 3.39038 6.03325 3.39038 10.0833C3.39038 14.1334 6.67363 17.4167 10.7237 17.4167Z" stroke="black" stroke-opacity="0.2" stroke-width="2" stroke-linecap="round" stroke-linejoin="round"/>
<path d="M19.8903 19.25L15.9028 15.2625" stroke="#221711" stroke-width="2" stroke-linecap="round" stroke-linejoin="round"/>
<path d="M19.8903 19.25L15.9028 15.2625" stroke="black" stroke-opacity="0.2" stroke-width="2" stroke-linecap="round" stroke-linejoin="round"/>
</svg>
